<svg width="33" height="32" viewBox="0 0 33 32" fill="none" xmlns="http://www.w3.org/2000/svg">
<g clip-path="url(#clip0_0_135)">
<path d="M9.93799 31.401C9.30649 30.982 8.74721 30.4633 8.28199 29.865C7.76957 29.2481 7.29471 28.6009 6.86 27.927C5.84034 26.4327 5.04051 24.7997 4.485 23.078C3.818 21.078 3.495 19.161 3.495 17.286C3.495 15.192 3.948 13.364 4.834 11.828C5.49156 10.628 6.45702 9.62496 7.63099 8.92202C8.7693 8.215 10.0772 7.82807 11.417 7.80202C11.887 7.80336 12.3903 7.86936 12.927 8.00002C13.312 8.10902 13.781 8.28102 14.354 8.49502C15.083 8.77602 15.484 8.94802 15.62 8.99002C16.047 9.14602 16.406 9.21402 16.688 9.21402C16.902 9.21402 17.204 9.14602 17.547 9.04202C17.74 8.97402 18.104 8.85402 18.625 8.63102C19.141 8.44302 19.547 8.28202 19.87 8.16202C20.365 8.01602 20.844 7.88102 21.271 7.81302C21.7772 7.73354 22.2909 7.71241 22.802 7.75002C23.6877 7.80701 24.5602 7.99471 25.391 8.30702C26.75 8.85402 27.849 9.70802 28.667 10.922C28.3214 11.1354 27.997 11.3812 27.698 11.656C27.0482 12.2332 26.4943 12.91 26.057 13.661C25.4852 14.6877 25.1893 15.8449 25.198 17.02C25.219 18.463 25.589 19.734 26.318 20.833C26.8547 21.6469 27.5511 22.3433 28.365 22.88C28.782 23.161 29.141 23.354 29.485 23.484C29.324 23.984 29.152 24.468 28.949 24.948C28.4895 26.0249 27.9315 27.0569 27.282 28.031C26.704 28.87 26.251 29.495 25.907 29.911C25.371 30.546 24.855 31.031 24.334 31.369C23.761 31.749 23.084 31.952 22.396 31.952C21.9301 31.9698 21.4642 31.9135 21.016 31.785C20.631 31.655 20.25 31.514 19.875 31.353C19.4853 31.1735 19.0833 31.0222 18.672 30.9C17.6555 30.6404 16.5903 30.6386 15.573 30.895C15.156 31.015 14.755 31.155 14.359 31.327C13.802 31.561 13.432 31.718 13.218 31.785C12.791 31.91 12.348 31.988 11.9 32.014C11.207 32.014 10.561 31.816 9.92099 31.415L9.93799 31.401ZM19.078 6.78602C18.172 7.23902 17.307 7.43202 16.448 7.36902C16.313 6.50402 16.448 5.61902 16.807 4.65002C17.1133 3.82943 17.5649 3.07067 18.14 2.41002C18.7481 1.7151 19.4858 1.14546 20.312 0.733023C21.1913 0.27969 22.0317 0.0350234 22.833 -0.000976562C22.937 0.905023 22.833 1.79602 22.5 2.75902C22.1915 3.61015 21.7408 4.40274 21.167 5.10302C20.5816 5.79954 19.8624 6.37149 19.052 6.78502L19.078 6.78602Z" fill="black"/>
</g>
<defs>
<clipPath id="clip0_0_135">
<rect width="32" height="32" fill="white" transform="translate(0.5)"/>
</clipPath>
</defs>
</svg>
