<svg width="108" height="36" viewBox="0 0 108 36" fill="none" xmlns="http://www.w3.org/2000/svg">
<path d="M20.3899 7H26V21.0876C26 22.6694 25.5379 24.0534 24.6137 25.2398C23.6981 26.4261 22.4154 27.3512 20.7656 28.0149C19.1158 28.6716 17.194 29 15 29C12.7974 29 10.8712 28.6716 9.22144 28.0149C7.57165 27.3512 6.28897 26.4261 5.37338 25.2398C4.45779 24.0534 4 22.6694 4 21.0876V7H6.80506H9.61013V20.6957C9.61013 21.5219 10.1595 22.2563 10.6 22.8989C11.0492 23.5415 11.3506 24.0464 12.1625 24.4136C12.9745 24.7808 13.9203 24.9644 15 24.9644C16.0883 24.9644 17.0342 24.7808 17.8375 24.4136C18.6494 24.0464 19.2756 23.5415 19.7161 22.8989C20.1653 22.2563 20.3899 21.5219 20.3899 20.6957V7Z" fill="#1E1E1E"/>
<path d="M15.75 13.5H15H14.25H11.25C8.76579 13.5 6.75 15.5158 6.75 18C6.75 20.4842 8.76579 22.5 11.25 22.5H14.25H15H15.75H18.75C21.2342 22.5 23.25 20.4842 23.25 18C23.25 15.5158 21.2342 13.5 18.75 13.5H15.75ZM11.25 16.5V17.25V18.75V19.5C10.4267 19.5 9.75 18.8233 9.75 18C9.75 17.1767 10.4267 16.5 11.25 16.5ZM18.75 17.25V16.5C19.5733 16.5 20.25 17.1767 20.25 18C20.25 18.8233 19.5733 19.5 18.75 19.5V18.75V17.25Z" fill="#209928" stroke="#FEFEFE" stroke-width="1.5"/>
<path d="M41.7859 9.27273H45.3224V20.1357C45.3224 21.3554 45.0311 22.4226 44.4485 23.3374C43.8713 24.2521 43.0627 24.9654 42.0227 25.4773C40.9827 25.9837 39.7712 26.2369 38.3881 26.2369C36.9996 26.2369 35.7854 25.9837 34.7454 25.4773C33.7054 24.9654 32.8968 24.2521 32.3196 23.3374C31.7424 22.4226 31.4538 21.3554 31.4538 20.1357V9.27273H34.9904V19.8335C34.9904 20.4705 35.1293 21.0368 35.407 21.5323C35.6901 22.0278 36.0876 22.4171 36.5994 22.7003C37.1113 22.9834 37.7075 23.125 38.3881 23.125C39.0742 23.125 39.6705 22.9834 40.1768 22.7003C40.6887 22.4171 41.0835 22.0278 41.3612 21.5323C41.6443 21.0368 41.7859 20.4705 41.7859 19.8335V9.27273ZM48.2322 26V9.27273H54.8316C56.0948 9.27273 57.173 9.4987 58.066 9.95064C58.9644 10.3971 59.6478 11.0315 60.116 11.8537C60.5898 12.6705 60.8266 13.6315 60.8266 14.7369C60.8266 15.8477 60.587 16.8033 60.1079 17.6037C59.6287 18.3987 58.9345 19.0085 58.0251 19.4332C57.1212 19.858 56.0268 20.0703 54.7417 20.0703H50.3231V17.228H54.17C54.8452 17.228 55.406 17.1354 55.8525 16.9503C56.299 16.7652 56.6312 16.4875 56.849 16.1172C57.0722 15.7469 57.1839 15.2868 57.1839 14.7369C57.1839 14.1815 57.0722 13.7132 56.849 13.332C56.6312 12.9509 56.2963 12.6623 55.8444 12.4663C55.3979 12.2648 54.8343 12.1641 54.1537 12.1641H51.7687V26H48.2322ZM57.2655 18.3878L61.4229 26H57.5187L53.4513 18.3878H57.2655ZM63.3259 26V9.27273H66.8625V23.0842H74.0336V26H63.3259ZM76.3104 26V13.4545H79.7898V26H76.3104ZM78.0582 11.8374C77.541 11.8374 77.0972 11.6658 76.7269 11.3228C76.3621 10.9743 76.1797 10.5578 76.1797 10.0732C76.1797 9.59399 76.3621 9.18288 76.7269 8.83984C77.0972 8.49136 77.541 8.31712 78.0582 8.31712C78.5755 8.31712 79.0166 8.49136 79.3814 8.83984C79.7517 9.18288 79.9368 9.59399 79.9368 10.0732C79.9368 10.5578 79.7517 10.9743 79.3814 11.3228C79.0166 11.6658 78.5755 11.8374 78.0582 11.8374ZM89.2499 13.4545V16.0682H81.6949V13.4545H89.2499ZM83.4101 10.4489H86.8895V22.1449C86.8895 22.4661 86.9385 22.7166 87.0365 22.8963C87.1345 23.0705 87.2706 23.1931 87.4449 23.2638C87.6246 23.3346 87.8315 23.37 88.0656 23.37C88.229 23.37 88.3923 23.3564 88.5557 23.3292C88.719 23.2965 88.8443 23.272 88.9314 23.2557L89.4786 25.8448C89.3044 25.8993 89.0593 25.9619 88.7435 26.0327C88.4277 26.1089 88.0438 26.1552 87.5919 26.1715C86.7533 26.2042 86.0183 26.0926 85.3866 25.8366C84.7604 25.5807 84.2731 25.1832 83.9246 24.6442C83.5761 24.1051 83.4046 23.4245 83.4101 22.6023V10.4489ZM97.099 26.245C95.8085 26.245 94.6977 25.9837 93.7666 25.4609C92.8409 24.9328 92.1276 24.1868 91.6267 23.223C91.1257 22.2538 90.8753 21.1076 90.8753 19.7844C90.8753 18.494 91.1257 17.3614 91.6267 16.3867C92.1276 15.4121 92.8328 14.6525 93.7421 14.108C94.6569 13.5634 95.7296 13.2912 96.9601 13.2912C97.7878 13.2912 98.5583 13.4246 99.2716 13.6914C99.9903 13.9528 100.617 14.3475 101.15 14.8757C101.689 15.4039 102.108 16.0682 102.408 16.8686C102.707 17.6636 102.857 18.5947 102.857 19.6619V20.6175H92.2638V18.4613H99.5819C99.5819 17.9603 99.473 17.5166 99.2552 17.13C99.0374 16.7434 98.7352 16.4412 98.3486 16.2234C97.9675 16.0001 97.5237 15.8885 97.0173 15.8885C96.4891 15.8885 96.0209 16.011 95.6125 16.256C95.2095 16.4956 94.8937 16.8196 94.665 17.228C94.4363 17.6309 94.3193 18.0801 94.3138 18.5756V20.6257C94.3138 21.2464 94.4282 21.7828 94.6569 22.2347C94.891 22.6867 95.2204 23.0352 95.6452 23.2802C96.0699 23.5252 96.5735 23.6477 97.1562 23.6477C97.5428 23.6477 97.8967 23.5933 98.218 23.4844C98.5392 23.3755 98.8142 23.2121 99.0429 22.9943C99.2716 22.7765 99.4458 22.5097 99.5656 22.1939L102.784 22.4062C102.62 23.1795 102.285 23.8546 101.779 24.4318C101.278 25.0036 100.63 25.45 99.8351 25.7713C99.0456 26.0871 98.1336 26.245 97.099 26.245Z" fill="#1B5E20"/>
</svg>
