<svg width="33" height="32" viewBox="0 0 33 32" fill="none" xmlns="http://www.w3.org/2000/svg">
<path d="M19.984 7.93701V13.414L21.9 14.619C21.9692 14.6339 22.0408 14.6339 22.11 14.619L30.348 9.06501C30.342 8.79546 30.2434 8.5362 30.0687 8.33078C29.8941 8.12537 29.6541 7.98632 29.389 7.93701H19.984Z" fill="#0072C6"/>
<path d="M19.984 15.457L21.731 16.657C21.8127 16.707 21.9067 16.7335 22.0025 16.7335C22.0983 16.7335 22.1923 16.707 22.274 16.657C21.974 16.838 30.347 11.279 30.347 11.279V21.345C30.3688 21.549 30.3458 21.7552 30.2796 21.9494C30.2134 22.1435 30.1055 22.3209 29.9636 22.469C29.8217 22.6171 29.6491 22.7324 29.458 22.8069C29.2668 22.8813 29.0617 22.9131 28.857 22.9H19.983L19.984 15.457ZM10.94 12.932C10.6497 12.9307 10.3645 13.0079 10.1146 13.1554C9.8646 13.3029 9.65916 13.5153 9.51999 13.77C9.14005 14.4453 8.95778 15.214 8.99399 15.988C8.95451 16.7604 9.13704 17.528 9.51999 18.2C9.6585 18.4443 9.85886 18.6478 10.1009 18.7901C10.343 18.9325 10.6183 19.0086 10.8991 19.0108C11.18 19.013 11.4564 18.9413 11.7007 18.8028C11.945 18.6644 12.1486 18.4641 12.291 18.222C12.6705 17.5534 12.8493 16.7896 12.806 16.022C12.8493 15.2304 12.6765 14.4419 12.306 13.741C12.1732 13.4948 11.9759 13.2894 11.7353 13.1469C11.4946 13.0044 11.2197 12.9301 10.94 12.932Z" fill="#0072C6"/>
<path d="M2.65302 5.155V26.582L18.953 30V2L2.65302 5.155ZM13.561 19.491C13.2562 19.9209 12.8507 20.2697 12.3801 20.5069C11.9095 20.7442 11.3879 20.8626 10.861 20.852C10.3474 20.8611 9.8391 20.7461 9.37947 20.5166C8.91983 20.2871 8.52241 19.95 8.22101 19.534C7.50627 18.536 7.1487 17.3262 7.20601 16.1C7.14536 14.8137 7.50939 13.5431 8.24201 12.484C8.55097 12.0461 8.96281 11.6909 9.44129 11.4496C9.91978 11.2082 10.4502 11.0882 10.986 11.1C11.4959 11.0901 12.0004 11.2054 12.4554 11.4357C12.9104 11.666 13.3021 12.0043 13.596 12.421C14.3036 13.4407 14.6551 14.6653 14.596 15.905C14.6586 17.1821 14.2945 18.4437 13.561 19.491Z" fill="#0072C6"/>
</svg>
